<?xml version="1.0" encoding="utf-8"?>
<!-- Generator: Adobe Illustrator 23.1.0, SVG Export Plug-In . SVG Version: 6.00 Build 0)  -->
<svg version="1.1" xmlns="http://www.w3.org/2000/svg" xmlns:xlink="http://www.w3.org/1999/xlink" x="0px" y="0px"
	 viewBox="0 0 24 24" style="enable-background:new 0 0 24 24;" xml:space="preserve">
<style type="text/css">
	.st0{fill:#CCC9C6;}
	.st1{fill:#F5F2EF;}
	.st2{fill:#332518;}
	.st3{display:none;}
	.st4{display:inline;fill:#CCC9C6;}
	.st5{display:inline;fill:#F5F2EF;}
</style>
<g id="Layer_1">
	<g id="Layer_2">
		<polygon class="st0" points="10.3,18 7,18 7,9.5 		"/>
		<polygon class="st1" points="17,6 17,18 12.4,18 7.8,6 		"/>
	</g>
	<polygon class="st2" points="13.7,18 13,19.8 13,20 11,20 11,19.8 7,9.5 7,20 5,20 5,4 7,4 12.4,18 	"/>
	<polygon class="st2" points="19,4 19,20 17,20 17,6 16.2,6 17,4 	"/>
</g>
<g id="Layer_3" class="st3">
	<rect x="-38.9" class="st4" width="31.5" height="17.7"/>
	
		<text transform="matrix(1 0 0 1 -23.459 16.501)" style="display:inline;fill:#5C5A58; font-family:'OpenSans-SemiBold'; font-size:2.4955px;">Hugo Theme</text>
	<polygon class="st5" points="-21.9,0 -24.9,17.7 -38.9,17.7 -38.9,0 	"/>
	
		<text transform="matrix(1 0 0 1 -38.1279 2.4385)" style="display:inline;fill:#4D4033; font-family:'OpenSans-Bold'; font-size:2.2328px;">Monochrome</text>
	<text transform="matrix(1 0 0 1 -23.5127 35.7471)" style="display:inline;"><tspan x="0" y="0" style="font-family:'OpenSans-Light'; font-size:12px;">M</tspan><tspan x="10.4" y="0" style="font-family:'OpenSans-Regular'; font-size:12px;">M</tspan><tspan x="21.2" y="0" style="font-family:'OpenSans-SemiBold'; font-size:12px;">M</tspan><tspan x="32.3" y="0" style="font-family:'OpenSans-Bold'; font-size:12px;">M</tspan></text>
</g>
</svg>
